<?xml version="1.0" standalone="no"?>
<!DOCTYPE svg PUBLIC "-//W3C//DTD SVG 20010904//EN"
 "http://www.w3.org/TR/2001/REC-SVG-20010904/DTD/svg10.dtd">
<svg version="1.0" xmlns="http://www.w3.org/2000/svg"
 width="150.000000pt" height="150.000000pt" viewBox="0 0 150.000000 150.000000"
 preserveAspectRatio="xMidYMid meet">
<metadata>
Created by potrace 1.14, written by Peter Selinger 2001-2017
</metadata>
<g transform="translate(0.000000,150.000000) scale(0.100000,-0.100000)"
fill="#000000" stroke="none">
<path d="M628 1490 c-108 -19 -242 -75 -318 -132 -14 -11 -54 -47 -88 -81
-268 -262 -295 -695 -61 -987 202 -252 522 -350 819 -251 235 79 401 246 482
485 29 82 32 103 32 216 1 76 -4 146 -13 179 -70 275 -273 481 -546 558 -62
17 -244 25 -307 13z m562 -500 l0 -49 -141 -3 -142 -3 141 -110 142 -110 0
-58 c0 -44 -3 -56 -12 -51 -7 4 -102 77 -211 161 l-197 154 -166 -128 c-91
-70 -185 -143 -210 -161 l-44 -34 0 59 0 60 142 109 142 109 -142 3 -142 3 0
49 0 50 420 0 420 0 0 -50z m-240 -320 c85 -67 174 -136 197 -153 41 -31 42
-34 43 -89 0 -32 -2 -58 -6 -58 -3 0 -40 27 -82 60 l-78 60 -256 0 -255 0 -76
-60 c-42 -33 -79 -60 -82 -60 -3 0 -5 26 -5 58 l0 58 178 136 c97 76 190 148
207 162 20 16 35 21 45 16 8 -5 85 -64 170 -130z"/>
<path d="M706 641 l-59 -46 62 -3 c33 -2 88 -2 122 0 l60 3 -53 40 c-29 22
-57 43 -63 46 -5 3 -36 -15 -69 -40z"/>
</g>
</svg>
